<?xml version="1.0" encoding="UTF-8" standalone="no"?>
<!DOCTYPE svg PUBLIC "-//W3C//DTD SVG 1.1//EN" "http://www.w3.org/Graphics/SVG/1.1/DTD/svg11.dtd">
<svg width="100%" height="100%" viewBox="0 0 2850 1809" version="1.1" xmlns="http://www.w3.org/2000/svg" xmlns:xlink="http://www.w3.org/1999/xlink" xml:space="preserve" xmlns:serif="http://www.serif.com/" style="fill-rule:evenodd;clip-rule:evenodd;stroke-linejoin:round;stroke-miterlimit:2;">
    <g transform="matrix(4.16667,0,0,4.16667,0,0)">
        <path d="M390.32,60.806C373.324,53.064 352.656,53.943 336.378,63.1C319.117,72.809 307.376,90.671 289.628,99.456C273.998,107.193 256.174,106.832 238.474,106.472C233.368,106.369 228.272,106.265 223.242,106.355C200.775,106.76 174.853,114.094 166.583,134.987C159.599,152.635 168.132,173.317 162.156,191.332C157.202,206.265 143.486,216.167 132.902,227.809C115.335,247.129 105.535,274.119 109.705,299.896C113.875,325.673 133.166,349.163 158.498,355.5C171.248,358.69 184.606,357.65 197.911,356.61C213.329,355.404 228.677,354.199 242.928,359.577C260.794,366.319 273.464,382.197 289.618,392.382C316.801,409.522 354.305,408.462 380.477,389.815C393.858,380.281 404.202,366.829 418.118,358.093C454.149,335.475 504.313,349.655 540.89,327.931C569.948,310.672 582.897,270.631 569.448,239.625C559.59,216.901 538.267,200.46 529.403,177.329C521.961,157.91 524.232,136.315 521.93,115.646C519.627,94.978 510.04,72.239 490.186,66.052C477.092,61.972 463.077,66.2 449.48,67.982C428.15,70.777 409.769,70 390.32,60.806Z" style="fill:rgb(215,217,217);fill-rule:nonzero;"/>
        <path d="M77.48,4.494C60.604,10.024 42.617,23.519 38.739,40.85C34.862,58.181 39.502,76.907 49.77,91.398C57.608,102.458 70.186,111.714 83.653,110.168C93.69,109.015 102.136,102.182 111.831,99.341C120.756,96.725 130.416,97.586 139.343,94.977C158.053,89.508 169.781,68.409 167.22,49.086C164.66,29.762 149.785,13.357 131.725,6.023C113.664,-1.311 93.009,-0.41 74.403,5.403" style="fill:rgb(215,217,217);fill-rule:nonzero;"/>
        <path d="M591.328,347.808C577.399,345.048 562.257,350.947 553.406,362.051C544.556,373.155 542.126,388.886 546.656,402.343C551.187,415.801 562.354,426.711 575.721,431.502C585.489,435.003 596.947,435.193 605.743,429.688C613.308,424.953 618.003,416.644 620.565,408.096C624.493,394.998 623.907,380.256 617.304,368.282C610.699,356.308 600.177,346.852 586.506,347.134" style="fill:rgb(229,229,228);fill-rule:nonzero;"/>
        <path d="M632.926,242.292L633.405,243.159C633.942,244.133 634.75,244.933 635.732,245.465L636.608,245.94L635.732,246.414C634.75,246.947 633.942,247.746 633.405,248.72L632.926,249.587L632.447,248.72C631.91,247.746 631.102,246.947 630.119,246.414L629.244,245.94L630.119,245.465C631.102,244.933 631.91,244.133 632.447,243.159L632.926,242.292Z" style="fill:rgb(229,229,228);fill-rule:nonzero;"/>
        <path d="M77.683,284.739L78.162,285.606C78.699,286.579 79.507,287.379 80.49,287.911L81.365,288.386L80.49,288.861C79.507,289.393 78.699,290.193 78.162,291.166L77.683,292.034L77.204,291.166C76.667,290.193 75.859,289.393 74.877,288.861L74.001,288.386L74.877,287.911C75.859,287.379 76.667,286.579 77.204,285.606L77.683,284.739Z" style="fill:rgb(229,229,228);fill-rule:nonzero;"/>
        <path d="M651.993,340.143L652.812,341.64C653.731,343.32 655.112,344.701 656.792,345.619L658.289,346.439L656.792,347.257C655.112,348.176 653.731,349.557 652.812,351.237L651.993,352.734L651.175,351.237C650.256,349.557 648.875,348.176 647.194,347.257L645.698,346.439L647.194,345.619C648.875,344.701 650.256,343.32 651.175,341.64L651.993,340.143Z" style="fill:rgb(229,229,228);fill-rule:nonzero;"/>
        <path d="M57.051,380.826L57.87,382.323C58.789,384.002 60.17,385.384 61.85,386.302L63.347,387.121L61.85,387.94C60.17,388.859 58.789,390.24 57.87,391.92L57.051,393.416L56.233,391.92C55.314,390.24 53.932,388.859 52.253,387.94L50.756,387.121L52.253,386.302C53.932,385.384 55.314,384.002 56.233,382.323L57.051,380.826Z" style="fill:rgb(229,229,228);fill-rule:nonzero;"/>
        <path d="M285.889,39.405L286.708,40.902C287.627,42.581 289.008,43.963 290.688,44.882L292.185,45.7L290.688,46.519C289.008,47.438 287.627,48.819 286.708,50.499L285.889,51.996L285.071,50.499C284.152,48.819 282.771,47.438 281.09,46.519L279.594,45.7L281.09,44.882C282.771,43.963 284.152,42.581 285.071,40.902L285.889,39.405Z" style="fill:rgb(229,229,228);fill-rule:nonzero;"/>
        <path d="M500.064,173.483L500.882,174.979C501.801,176.659 503.182,178.041 504.861,178.959L506.358,179.778L504.861,180.596C503.182,181.515 501.801,182.897 500.882,184.577L500.064,186.074L499.244,184.577C498.325,182.897 496.944,181.515 495.265,180.596L493.768,179.778L495.265,178.959C496.944,178.041 498.325,176.659 499.244,174.979L500.064,173.483Z" style="fill:rgb(249,249,249);fill-rule:nonzero;"/>
        <path d="M201.251,255.134C200.316,258.867 248.309,298.543 362.032,290.379C459.745,283.365 507.604,238.637 507.604,238.637L201.251,255.134Z" style="fill:rgb(25,158,137);fill-rule:nonzero;"/>
        <path d="M332.032,291.483C240.812,291.482 201.258,259.226 201.238,255.253C201.237,255.21 201.242,255.171 201.251,255.134L507.604,238.637C507.604,238.637 459.745,283.365 362.032,290.379C351.468,291.138 341.475,291.483 332.032,291.483Z" style="fill:rgb(25,158,137);fill-rule:nonzero;"/>
        <path d="M199.886,253.03C200.424,264.327 269.666,270.206 354.54,266.16C439.414,262.113 507.782,249.674 507.244,238.376C506.705,227.078 437.464,221.201 352.59,225.247C267.715,229.293 199.347,241.733 199.886,253.03Z" style="fill:rgb(43,223,194);fill-rule:nonzero;"/>
        <path d="M283.199,240.463C283.199,240.463 278.715,170.955 347.637,162.141C416.56,153.327 422.696,226.361 422.696,226.361C422.696,226.361 378.086,260.359 283.199,240.463Z" style="fill:rgb(240,240,240);fill-rule:nonzero;"/>
        <path d="M318.752,178.658C318.978,178.995 316.586,180.844 313.102,184.16C312.233,184.994 311.284,185.903 310.33,186.944C309.332,187.942 308.363,189.097 307.315,190.282C305.288,192.713 303.186,195.487 301.217,198.559C299.276,201.652 297.662,204.736 296.328,207.607C295.702,209.06 295.07,210.43 294.593,211.757C294.058,213.064 293.641,214.311 293.256,215.451C291.742,220.017 291.089,222.968 290.688,222.907C290.378,222.868 290.385,219.788 291.484,214.951C291.765,213.745 292.093,212.426 292.555,211.043C292.96,209.639 293.536,208.191 294.125,206.657C295.384,203.626 296.999,200.38 299.018,197.165C301.065,193.969 303.313,191.126 305.517,188.694C306.653,187.508 307.718,186.369 308.815,185.405C309.87,184.397 310.922,183.538 311.894,182.771C315.801,179.714 318.585,178.394 318.752,178.658Z" style="fill:white;fill-rule:nonzero;"/>
        <path d="M495.652,237.275C495.665,237.286 495.522,237.466 495.228,237.792C494.924,238.108 494.46,238.565 493.797,239.072C492.481,240.105 490.328,241.259 487.553,242.323C482.026,244.487 474.233,247.127 465.393,249.148C456.556,251.193 448.395,252.247 442.478,252.708C439.518,252.945 437.117,253.052 435.458,253.095C434.672,253.107 434.038,253.117 433.547,253.124C433.11,253.124 432.881,253.117 432.88,253.099C432.88,253.08 433.108,253.054 433.543,253.019C434.032,252.987 434.665,252.945 435.448,252.893C437.103,252.787 439.496,252.624 442.445,252.341C448.342,251.787 456.467,250.678 465.276,248.64C474.088,246.626 481.873,244.05 487.421,241.979C490.2,240.963 492.34,239.878 493.676,238.909C495.019,237.949 495.614,237.238 495.652,237.275Z" style="fill:white;fill-rule:nonzero;"/>
        <path d="M335.371,291.672C335.351,291.701 335.016,291.495 334.425,291.095C333.828,290.703 333.012,290.067 332.054,289.222C331.09,288.383 330.025,287.289 328.935,285.996C327.864,284.688 326.78,283.169 325.805,281.476C324.847,279.772 324.096,278.064 323.518,276.474C322.964,274.875 322.568,273.402 322.34,272.144C322.103,270.889 321.973,269.863 321.941,269.15C321.899,268.437 321.893,268.044 321.928,268.041C322.026,268.033 322.141,269.605 322.7,272.068C322.971,273.301 323.399,274.743 323.969,276.31C324.563,277.867 325.315,279.541 326.258,281.218C327.217,282.885 328.272,284.387 329.306,285.694C330.361,286.983 331.383,288.088 332.304,288.951C334.136,290.691 335.428,291.593 335.371,291.672Z" style="fill:rgb(12,43,52);fill-rule:nonzero;"/>
        <path d="M330.649,275.803C330.672,275.876 330.401,275.989 330.313,276.365C330.27,276.543 330.281,276.78 330.402,276.937C330.513,277.096 330.753,277.164 331.005,277.098C331.256,277.026 331.427,276.844 331.441,276.652C331.464,276.454 331.354,276.244 331.226,276.114C330.957,275.835 330.667,275.878 330.649,275.803C330.601,275.753 330.968,275.514 331.455,275.826C331.674,275.975 331.918,276.256 331.92,276.674C331.929,277.101 331.564,277.495 331.143,277.601C330.728,277.726 330.213,277.573 330.002,277.201C329.791,276.841 329.857,276.475 329.968,276.235C330.228,275.717 330.665,275.736 330.649,275.803Z" style="fill:rgb(12,43,52);fill-rule:nonzero;"/>
        <path d="M335.13,283.808C335.154,283.881 334.882,283.993 334.794,284.369C334.751,284.548 334.763,284.785 334.884,284.942C334.995,285.101 335.234,285.169 335.487,285.103C335.738,285.031 335.908,284.849 335.922,284.657C335.946,284.459 335.835,284.249 335.707,284.118C335.439,283.84 335.148,283.882 335.13,283.808C335.083,283.758 335.449,283.519 335.937,283.83C336.155,283.98 336.399,284.261 336.402,284.678C336.41,285.106 336.045,285.5 335.625,285.605C335.21,285.73 334.694,285.577 334.483,285.206C334.272,284.846 334.338,284.48 334.45,284.24C334.709,283.722 335.146,283.741 335.13,283.808Z" style="fill:rgb(12,43,52);fill-rule:nonzero;"/>
        <path d="M200.244,252.354C200.239,252.337 200.519,252.245 201.057,252.086C201.64,251.921 202.425,251.698 203.414,251.417C205.461,250.838 208.443,250.07 212.143,249.182C219.541,247.402 229.849,245.279 241.348,243.637C252.853,242.006 263.345,241.17 270.946,240.816C274.747,240.636 277.824,240.543 279.952,240.529C280.979,240.522 281.795,240.517 282.402,240.514C282.961,240.516 283.256,240.526 283.256,240.544C283.256,240.562 282.963,240.587 282.404,240.618C281.798,240.647 280.983,240.684 279.958,240.731C277.833,240.808 274.76,240.957 270.966,241.184C263.378,241.631 252.908,242.524 241.421,244.153C229.94,245.791 219.638,247.854 212.226,249.54C208.52,250.381 205.527,251.095 203.464,251.614C202.466,251.855 201.673,252.046 201.084,252.188C200.538,252.314 200.249,252.371 200.244,252.354Z" style="fill:rgb(12,43,52);fill-rule:nonzero;"/>
        <path d="M423.771,260.186C423.749,260.216 423.293,259.935 422.486,259.402C421.602,258.815 420.455,258.056 419.077,257.142C416.197,255.236 412.188,252.651 407.67,249.944C403.148,247.238 398.978,244.922 395.938,243.283C394.482,242.498 393.271,241.847 392.336,241.344C391.485,240.884 391.023,240.615 391.039,240.582C391.055,240.55 391.548,240.758 392.427,241.162C393.307,241.565 394.565,242.176 396.108,242.956C399.196,244.515 403.405,246.784 407.938,249.496C412.465,252.21 416.452,254.85 419.284,256.836C420.7,257.828 421.834,258.651 422.604,259.237C423.375,259.82 423.791,260.157 423.771,260.186Z" style="fill:rgb(12,43,52);fill-rule:nonzero;"/>
        <path d="M395.75,247.065C395.804,247.125 395.507,247.372 395.524,247.89C395.533,248.136 395.627,248.441 395.85,248.629C396.062,248.822 396.422,248.859 396.751,248.715C397.08,248.569 397.295,248.278 397.296,247.992C397.307,247.7 397.146,247.425 396.97,247.252C396.599,246.891 396.216,246.943 396.208,246.864C396.165,246.814 396.621,246.575 397.201,246.966C397.467,247.156 397.752,247.498 397.775,247.988C397.809,248.485 397.446,248.987 396.962,249.192C396.483,249.411 395.868,249.34 395.523,248.981C395.179,248.633 395.117,248.192 395.157,247.868C395.259,247.176 395.742,246.999 395.75,247.065Z" style="fill:rgb(12,43,52);fill-rule:nonzero;"/>
        <path d="M266.348,243.191C266.402,243.25 266.105,243.497 266.123,244.016C266.132,244.262 266.225,244.566 266.448,244.754C266.66,244.948 267.02,244.985 267.349,244.841C267.678,244.694 267.893,244.404 267.894,244.117C267.905,243.826 267.743,243.551 267.567,243.378C267.197,243.016 266.814,243.069 266.806,242.989C266.763,242.939 267.219,242.701 267.799,243.092C268.065,243.281 268.35,243.623 268.374,244.113C268.406,244.611 268.044,245.112 267.56,245.318C267.081,245.536 266.466,245.466 266.122,245.107C265.776,244.759 265.715,244.317 265.755,243.994C265.857,243.301 266.34,243.125 266.348,243.191Z" style="fill:rgb(12,43,52);fill-rule:nonzero;"/>
        <path d="M242.477,246.2C242.53,246.259 242.233,246.506 242.251,247.024C242.26,247.271 242.354,247.575 242.577,247.763C242.789,247.956 243.148,247.992 243.478,247.849C243.806,247.702 244.022,247.411 244.023,247.125C244.033,246.834 243.872,246.56 243.696,246.387C243.325,246.025 242.942,246.077 242.935,245.997C242.892,245.948 243.348,245.709 243.928,246.101C244.193,246.289 244.478,246.632 244.502,247.121C244.535,247.618 244.173,248.12 243.688,248.326C243.21,248.545 242.595,248.474 242.25,248.115C241.905,247.768 241.844,247.326 241.883,247.002C241.985,246.31 242.469,246.134 242.477,246.2Z" style="fill:rgb(12,43,52);fill-rule:nonzero;"/>
        <path d="M215.255,250.407C215.309,250.466 215.012,250.714 215.029,251.232C215.039,251.478 215.132,251.783 215.355,251.971C215.567,252.163 215.927,252.201 216.256,252.057C216.585,251.91 216.8,251.619 216.801,251.332C216.812,251.041 216.65,250.767 216.474,250.594C216.104,250.233 215.721,250.284 215.713,250.204C215.67,250.155 216.126,249.916 216.707,250.308C216.971,250.497 217.256,250.84 217.28,251.329C217.314,251.826 216.951,252.328 216.466,252.534C215.988,252.753 215.374,252.682 215.028,252.323C214.684,251.975 214.623,251.534 214.662,251.21C214.764,250.518 215.247,250.341 215.255,250.407Z" style="fill:rgb(12,43,52);fill-rule:nonzero;"/>
        <path d="M406.649,254.421C406.703,254.481 406.406,254.729 406.424,255.246C406.433,255.492 406.526,255.797 406.749,255.985C406.961,256.178 407.321,256.215 407.65,256.072C407.98,255.924 408.194,255.634 408.195,255.347C408.206,255.056 408.045,254.782 407.869,254.609C407.498,254.246 407.115,254.299 407.107,254.219C407.065,254.169 407.521,253.931 408.101,254.323C408.366,254.511 408.651,254.855 408.675,255.344C408.708,255.841 408.346,256.343 407.861,256.548C407.383,256.768 406.768,256.697 406.423,256.337C406.078,255.99 406.017,255.548 406.057,255.225C406.158,254.532 406.642,254.356 406.649,254.421Z" style="fill:rgb(12,43,52);fill-rule:nonzero;"/>
        <path d="M358.32,169.969C346.184,165.954 333.36,173.403 330.992,185.964C330.959,186.145 330.925,186.327 330.894,186.511C330.544,188.527 330.512,190.585 330.85,192.604C331.296,195.274 332.345,199.194 334.807,203.185C340.538,212.474 343.607,212.774 344.17,218.076C344.734,223.379 345.524,224.507 342.817,226.763C342.817,226.763 339.094,226.989 337.063,228.23C335.033,229.471 333.34,230.373 333.115,236.578C332.889,242.782 332.627,246.601 332.627,246.601C343.863,247.146 354.744,246.885 365.065,245.351L363.801,229.697C363.801,229.697 363.123,227.214 360.642,226.763C358.159,226.312 354.324,226.425 354.099,225.071C353.873,223.717 354.437,223.266 354.437,223.266C354.437,223.266 358.949,225.071 361.883,223.717C364.815,222.364 368.087,220.558 368.651,218.302C369.216,216.046 370.979,208.374 370.605,208.036C370.23,207.698 375.016,203.864 375.218,195.074C375.42,186.283 369.554,174.53 361.77,171.259C360.602,170.768 359.444,170.341 358.32,169.969Z" style="fill:rgb(51,88,99);fill-rule:nonzero;"/>
        <path d="M343.907,189.922C343.907,189.922 360.666,184.836 358.167,204.209C358.167,204.209 340.25,206.459 343.907,189.922Z" style="fill:rgb(12,43,52);fill-rule:nonzero;"/>
        <path d="M365.387,203.791C365.387,203.791 358.329,186.949 370.71,188.63C370.71,188.63 377.432,200.825 365.387,203.791Z" style="fill:rgb(12,43,52);fill-rule:nonzero;"/>
        <path d="M388.049,224.926C388.049,224.926 385.006,225.889 384.306,226.742C383.606,227.595 382.447,230.545 381.216,230.908C379.984,231.27 378.11,230.61 378.11,230.61C378.11,230.61 377.452,226.994 376.087,225.378C374.722,223.764 374.398,224.158 374.398,224.158C374.398,224.158 371.011,224.069 371.188,222.181C371.188,222.181 372.594,220.534 374.992,222.832C374.992,222.832 376.263,224.094 377.603,222.997C378.942,221.901 379.135,219.227 379.002,217.43C379.002,217.43 377.652,214.305 379.762,213.675C379.762,213.675 381.524,213.803 380.557,217.458C380.557,217.458 379.009,221.351 381.151,222.89C381.151,222.89 382.89,223.655 384.847,220.273L385.499,219.035C385.499,219.035 385.607,216.355 387.934,216.286C388.217,216.279 388.469,216.465 388.52,216.743C388.648,217.453 388.622,218.866 386.711,219.718C386.711,219.718 384.038,221.692 384.387,224.033C384.387,224.033 385.198,224.907 387.207,223.984L387.945,223.72C387.945,223.72 390.482,221.562 390.847,222.557C391.278,223.731 389.836,225.011 388.049,224.926Z" style="fill:rgb(51,88,99);fill-rule:nonzero;"/>
        <path d="M378.099,230.092L374.824,244.015L377.661,243.559L380.576,242.986L382.265,230.056L378.099,230.092Z" style="fill:rgb(51,88,99);fill-rule:nonzero;"/>
        <clipPath id="_clip1">
            <path d="M341.807,180.292C341.509,180.292 341.213,180.242 340.932,180.139C339.755,179.703 338.992,178.366 339.205,177.129C339.39,176.06 340.288,175.297 341.338,175.084C341.522,175.043 341.71,175.023 341.898,175.023C342.478,175.023 343.061,175.215 343.52,175.572C344.51,176.342 344.808,177.869 344.187,178.959C343.714,179.79 342.756,180.292 341.807,180.292Z"/>
        </clipPath>
        <g clip-path="url(#_clip1)">
            <rect x="338.992" y="175.023" width="5.816" height="5.269" style="fill:rgb(93,120,128);fill-rule:nonzero;"/>
        </g>
        <path d="M346.535,193.811C346.015,193.781 345.5,194.08 345.365,194.584C345.231,195.089 345.497,195.671 345.969,195.895C346.44,196.12 347.063,195.957 347.36,195.529C347.658,195.1 347.592,194.456 347.211,194.1C346.972,193.878 346.63,193.771 346.308,193.819" style="fill:rgb(51,88,99);fill-rule:nonzero;"/>
        <path d="M346.991,197.93C346.727,197.915 346.466,198.066 346.398,198.322C346.329,198.578 346.465,198.873 346.703,198.987C346.942,199.101 347.259,199.018 347.41,198.801C347.561,198.584 347.527,198.257 347.334,198.076C347.213,197.964 347.039,197.91 346.876,197.934" style="fill:rgb(51,88,99);fill-rule:nonzero;"/>
        <path d="M338.181,183.266C337.846,183.266 337.51,183.126 337.315,182.85C336.94,182.319 337.217,181.459 337.833,181.247L338.576,181.268C339.178,181.516 339.405,182.391 338.999,182.899C338.804,183.145 338.493,183.266 338.181,183.266Z" style="fill:rgb(93,120,128);fill-rule:nonzero;"/>
        <path d="M353.162,206.054C353.161,206.086 352.88,206.117 352.368,206.104C351.858,206.092 351.117,206.009 350.227,205.784C348.458,205.352 346.05,204.196 344.211,202.025C342.374,199.85 341.634,197.284 341.501,195.468C341.427,194.552 341.468,193.808 341.541,193.303C341.612,192.796 341.69,192.524 341.722,192.529C341.817,192.538 341.631,193.657 341.867,195.428C342.088,197.18 342.857,199.614 344.608,201.689C346.363,203.759 348.635,204.92 350.327,205.43C352.034,205.956 353.169,205.958 353.162,206.054Z" style="fill:rgb(12,43,52);fill-rule:nonzero;"/>
        <path d="M358.202,193.599C358.071,193.706 356.676,191.179 353.692,189.521C350.737,187.81 347.853,187.909 347.878,187.742C347.874,187.684 348.577,187.57 349.718,187.685C350.854,187.797 352.418,188.203 353.949,189.068C355.477,189.938 356.628,191.072 357.307,191.991C357.99,192.909 358.253,193.573 358.202,193.599Z" style="fill:rgb(12,43,52);fill-rule:nonzero;"/>
        <path d="M363.322,195.643C363.254,195.648 363.13,195.071 363.037,194.117C362.957,193.172 362.893,191.8 363.365,190.357C363.852,188.906 364.9,187.869 365.808,187.459C366.727,187.032 367.375,187.164 367.362,187.214C367.371,187.305 366.764,187.317 365.981,187.784C365.202,188.234 364.301,189.207 363.859,190.523C363.422,191.851 363.417,193.163 363.405,194.101C363.403,195.045 363.397,195.638 363.322,195.643Z" style="fill:rgb(12,43,52);fill-rule:nonzero;"/>
        <path d="M371.324,201.951C371.456,201.989 370.76,203.464 369.04,204.296C367.329,205.149 365.736,204.799 365.787,204.671C365.794,204.515 367.26,204.61 368.811,203.828C370.375,203.079 371.197,201.861 371.324,201.951Z" style="fill:rgb(12,43,52);fill-rule:nonzero;"/>
        <path d="M361.648,211.674C361.679,211.729 361.45,211.944 360.971,212.063C360.503,212.184 359.766,212.164 359.103,211.753C358.44,211.338 358.099,210.684 358.001,210.21C357.898,209.727 357.99,209.428 358.054,209.431C358.132,209.43 358.178,209.709 358.352,210.096C358.521,210.481 358.851,210.98 359.378,211.311C359.905,211.638 360.499,211.716 360.919,211.699C361.344,211.685 361.614,211.603 361.648,211.674Z" style="fill:rgb(12,43,52);fill-rule:nonzero;"/>
        <path d="M358.724,223.893C358.728,223.95 358.039,224.067 356.923,223.949C355.813,223.836 354.284,223.42 352.804,222.543C351.325,221.66 350.232,220.515 349.602,219.593C348.966,218.668 348.74,218.008 348.793,217.984C348.869,217.944 349.208,218.535 349.896,219.37C350.578,220.205 351.659,221.252 353.069,222.096C354.483,222.933 355.919,223.383 356.98,223.585C358.04,223.79 358.723,223.806 358.724,223.893Z" style="fill:rgb(12,43,52);fill-rule:nonzero;"/>
        <path d="M339.609,246.742C339.465,246.742 339.344,244.596 339.34,241.95C339.335,239.302 339.448,237.157 339.591,237.157C339.735,237.157 339.856,239.301 339.86,241.949C339.865,244.595 339.753,246.742 339.609,246.742Z" style="fill:rgb(12,43,52);fill-rule:nonzero;"/>
        <path d="M349.9,243.035C349.939,243.165 347.956,243.738 345.444,243.598C344.221,243.555 342.987,243.309 342.347,242.669C341.691,242.06 341.697,241.443 341.761,241.452C341.837,241.428 341.963,241.938 342.581,242.385C343.179,242.861 344.251,243.032 345.472,243.078C347.901,243.215 349.872,242.886 349.9,243.035Z" style="fill:rgb(12,43,52);fill-rule:nonzero;"/>
        <path d="M359.692,245.94C359.549,245.952 359.273,244.158 359.077,241.931C358.881,239.704 358.838,237.89 358.981,237.877C359.124,237.865 359.399,239.659 359.596,241.886C359.792,244.112 359.835,245.927 359.692,245.94Z" style="fill:rgb(12,43,52);fill-rule:nonzero;"/>
        <path d="M359.195,239.481C359.331,239.51 358.865,240.824 357.458,241.64C356.061,242.474 354.687,242.243 354.727,242.111C354.727,241.957 355.954,241.94 357.194,241.192C358.449,240.471 359.062,239.406 359.195,239.481Z" style="fill:rgb(12,43,52);fill-rule:nonzero;"/>
        <path d="M369.082,168.926C369.123,169.078 367.437,169.437 365.922,170.802C364.38,172.139 363.817,173.768 363.671,173.708C363.61,173.69 363.663,173.254 363.945,172.609C364.224,171.965 364.767,171.13 365.576,170.412C366.389,169.697 367.283,169.26 367.956,169.063C368.632,168.862 369.071,168.863 369.082,168.926Z" style="fill:rgb(51,88,99);fill-rule:nonzero;"/>
        <path d="M370.299,167.849C369.688,167.525 368.831,167.771 368.51,168.385C368.071,169.223 368.809,170.533 369.98,170.09C370.797,169.781 371.146,168.719 370.598,168.037C370.405,167.798 370.153,167.652 369.871,167.706" style="fill:rgb(51,88,99);fill-rule:nonzero;"/>
        <path d="M364.488,167.1C364.53,167.253 362.844,167.612 361.328,168.976C359.787,170.313 359.225,171.943 359.078,171.883C359.018,171.865 359.07,171.429 359.353,170.784C359.63,170.14 360.174,169.305 360.983,168.586C361.796,167.871 362.69,167.434 363.363,167.237C364.039,167.037 364.478,167.038 364.488,167.1Z" style="fill:rgb(51,88,99);fill-rule:nonzero;"/>
        <path d="M365.705,166.024C365.095,165.7 364.237,165.946 363.917,166.559C363.479,167.398 364.216,168.708 365.386,168.265C366.204,167.955 366.553,166.893 366.005,166.212C365.813,165.972 365.561,165.826 365.278,165.88" style="fill:rgb(51,88,99);fill-rule:nonzero;"/>
        <path d="M235.889,181.787L236.368,182.654C236.905,183.627 237.713,184.428 238.696,184.96L239.571,185.434L238.696,185.908C237.713,186.441 236.905,187.241 236.368,188.214L235.889,189.081L235.411,188.214C234.873,187.241 234.065,186.441 233.083,185.908L232.207,185.434L233.083,184.96C234.065,184.428 234.873,183.627 235.411,182.654L235.889,181.787Z" style="fill:rgb(249,249,249);fill-rule:nonzero;"/>
        <path d="M311.015,321.252L311.494,322.119C312.031,323.092 312.839,323.893 313.822,324.425L314.697,324.9L313.822,325.373C312.839,325.906 312.031,326.706 311.494,327.679L311.015,328.546L310.536,327.679C309.999,326.706 309.191,325.906 308.209,325.373L307.333,324.9L308.209,324.425C309.191,323.893 309.999,323.092 310.536,322.119L311.015,321.252Z" style="fill:rgb(229,229,228);fill-rule:nonzero;"/>
        <path d="M161.881,408.521L162.36,409.388C162.898,410.362 163.705,411.161 164.688,411.694L165.564,412.168L164.688,412.642C163.705,413.174 162.898,413.975 162.36,414.949L161.881,415.815L161.402,414.949C160.865,413.975 160.057,413.174 159.074,412.642L158.199,412.168L159.074,411.694C160.057,411.161 160.865,410.362 161.402,409.388L161.881,408.521Z" style="fill:rgb(229,229,228);fill-rule:nonzero;"/>
        <path d="M483.752,21.796L484.227,22.663C484.759,23.637 485.559,24.437 486.532,24.969L487.399,25.443L486.532,25.917C485.559,26.449 484.759,27.25 484.227,28.223L483.752,29.091L483.277,28.223C482.745,27.25 481.945,26.449 480.972,25.917L480.105,25.443L480.972,24.969C481.945,24.437 482.745,23.637 483.277,22.663L483.752,21.796Z" style="fill:rgb(51,88,99);fill-rule:nonzero;"/>
        <path d="M351.239,359.762L351.714,360.629C352.246,361.603 353.047,362.403 354.02,362.935L354.887,363.41L354.02,363.884C353.047,364.416 352.246,365.216 351.714,366.19L351.239,367.057L350.766,366.19C350.233,365.216 349.433,364.416 348.459,363.884L347.593,363.41L348.459,362.935C349.433,362.403 350.233,361.603 350.766,360.629L351.239,359.762Z" style="fill:rgb(51,88,99);fill-rule:nonzero;"/>
        <path d="M74.452,77.075L74.926,77.943C75.459,78.916 76.259,79.716 77.232,80.249L78.099,80.723L77.232,81.197C76.259,81.729 75.459,82.53 74.926,83.503L74.452,84.37L73.978,83.503C73.445,82.53 72.645,81.729 71.672,81.197L70.805,80.723L71.672,80.249C72.645,79.716 73.445,78.916 73.978,77.943L74.452,77.075Z" style="fill:rgb(51,88,99);fill-rule:nonzero;"/>
        <path d="M529.29,386.916L529.765,387.784C530.297,388.757 531.097,389.557 532.07,390.089L532.938,390.564L532.07,391.038C531.097,391.571 530.297,392.37 529.765,393.344L529.29,394.211L528.815,393.344C528.283,392.37 527.483,391.571 526.51,391.038L525.643,390.564L526.51,390.089C527.483,389.557 528.283,388.757 528.815,387.784L529.29,386.916Z" style="fill:rgb(51,88,99);fill-rule:nonzero;"/>
        <path d="M478.977,294.593L479.451,295.46C479.983,296.434 480.783,297.234 481.757,297.766L482.624,298.241L481.757,298.715C480.783,299.247 479.983,300.047 479.451,301.021L478.977,301.888L478.502,301.021C477.97,300.047 477.17,299.247 476.196,298.715L475.329,298.241L476.196,297.766C477.17,297.234 477.97,296.434 478.502,295.46L478.977,294.593Z" style="fill:rgb(51,88,99);fill-rule:nonzero;"/>
        <path d="M158.199,239.325L158.673,240.192C159.206,241.165 160.006,241.965 160.979,242.497L161.846,242.972L160.979,243.447C160.006,243.979 159.206,244.779 158.673,245.752L158.199,246.619L157.725,245.752C157.192,244.779 156.392,243.979 155.419,243.447L154.552,242.972L155.419,242.497C156.392,241.965 157.192,241.165 157.725,240.192L158.199,239.325Z" style="fill:rgb(51,88,99);fill-rule:nonzero;"/>
        <path d="M584.35,216.16L584.587,216.594C584.853,217.08 585.253,217.481 585.739,217.747L586.173,217.984L585.739,218.221C585.253,218.488 584.853,218.887 584.587,219.374L584.35,219.808L584.112,219.374C583.847,218.887 583.446,218.488 582.96,218.221L582.526,217.984L582.96,217.747C583.446,217.481 583.847,217.08 584.112,216.594L584.35,216.16Z" style="fill:rgb(51,88,99);fill-rule:nonzero;"/>
        <path d="M245.708,319.43L245.928,319.872C246.176,320.368 246.561,320.784 247.037,321.068L247.462,321.321L247.02,321.541C246.523,321.789 246.108,322.174 245.824,322.65L245.571,323.075L245.35,322.632C245.103,322.136 244.718,321.721 244.241,321.437L243.817,321.184L244.259,320.963C244.755,320.715 245.17,320.33 245.455,319.854L245.708,319.43Z" style="fill:rgb(51,88,99);fill-rule:nonzero;"/>
        <path d="M547.298,106.788L547.535,107.222C547.802,107.708 548.202,108.109 548.689,108.375L549.122,108.612L548.689,108.849C548.202,109.115 547.802,109.515 547.535,110.002L547.298,110.436L547.062,110.002C546.795,109.515 546.395,109.115 545.908,108.849L545.475,108.612L545.908,108.375C546.395,108.109 546.795,107.708 547.062,107.222L547.298,106.788Z" style="fill:rgb(51,88,99);fill-rule:nonzero;"/>
        <path d="M253.992,118.996L254.229,119.43C254.496,119.917 254.896,120.317 255.382,120.583L255.816,120.82L255.382,121.057C254.896,121.324 254.496,121.723 254.229,122.21L253.992,122.644L253.755,122.21C253.489,121.723 253.089,121.324 252.602,121.057L252.169,120.82L252.602,120.583C253.089,120.317 253.489,119.917 253.755,119.43L253.992,118.996Z" style="fill:rgb(51,88,99);fill-rule:nonzero;"/>
        <path d="M125.865,38.855L126.102,39.289C126.368,39.776 126.768,40.176 127.255,40.442L127.689,40.679L127.255,40.916C126.768,41.182 126.368,41.582 126.102,42.069L125.865,42.502L125.627,42.069C125.361,41.582 124.961,41.182 124.475,40.916L124.041,40.679L124.475,40.442C124.961,40.176 125.361,39.776 125.627,39.289L125.865,38.855Z" style="fill:rgb(51,88,99);fill-rule:nonzero;"/>
        <path d="M373.633,70.78L374.451,72.277C375.37,73.957 376.752,75.338 378.432,76.257L379.929,77.075L378.432,77.894C376.752,78.813 375.37,80.195 374.451,81.874L373.633,83.371L372.815,81.874C371.896,80.195 370.515,78.813 368.834,77.894L367.338,77.075L368.834,76.257C370.515,75.338 371.896,73.957 372.815,72.277L373.633,70.78Z" style="fill:rgb(51,88,99);fill-rule:nonzero;"/>
        <path d="M623.017,304.536L623.835,306.033C624.754,307.713 626.135,309.094 627.815,310.013L629.312,310.831L627.815,311.651C626.135,312.569 624.754,313.951 623.835,315.63L623.017,317.127L622.198,315.63C621.279,313.951 619.898,312.569 618.218,311.651L616.721,310.831L618.218,310.013C619.898,309.094 621.279,307.713 622.198,306.033L623.017,304.536Z" style="fill:rgb(51,88,99);fill-rule:nonzero;"/>
        <path d="M116.343,360.761L117.162,362.258C118.081,363.938 119.462,365.32 121.142,366.238L122.639,367.057L121.142,367.875C119.462,368.794 118.081,370.175 117.162,371.856L116.343,373.352L115.524,371.856C114.606,370.175 113.225,368.794 111.544,367.875L110.048,367.057L111.544,366.238C113.225,365.32 114.606,363.938 115.524,362.258L116.343,360.761Z" style="fill:rgb(51,88,99);fill-rule:nonzero;"/>
        <path d="M613.281,57.514C607.695,54.269 600.483,57.147 595.464,61.213C590.444,65.28 586.225,70.59 580.267,73.085C576.472,74.673 572.124,75.039 568.763,77.41C563.288,81.273 562.332,89.053 563.276,95.686C564.221,102.319 566.552,108.901 565.732,115.55C565.132,120.426 562.852,125.306 564.086,130.061C565.815,136.725 573.476,139.896 577.21,145.681C579.891,149.834 580.619,155.433 584.612,158.346C587.776,160.654 591.783,160.467 595.824,160.279C597.702,160.192 599.587,160.105 601.398,160.268C608.433,160.901 614.452,165.416 621.14,167.684C631.813,171.304 644.358,168.685 652.693,161.098C656.934,157.237 660.063,152.29 664.233,148.352C667.807,144.978 672.138,142.349 675.065,138.4C677.897,134.577 679.167,129.852 680.378,125.25C682.146,118.531 683.927,111.537 682.634,104.71C680.569,93.814 671.277,85.878 666.439,75.9C664.553,72.01 663.165,67.561 659.668,65.02C655.961,62.325 650.939,62.551 646.597,61.086C640.364,58.983 635.66,53.428 629.289,51.79C623.454,50.289 616.817,52.663 613.256,57.523L613.281,57.514Z" style="fill:rgb(25,158,137);fill-rule:nonzero;"/>
        <path d="M631.061,169.292C627.695,169.292 624.333,168.767 621.14,167.684C614.452,165.416 608.433,160.901 601.398,160.268C600.656,160.201 599.901,160.176 599.14,160.176C598.043,160.176 596.932,160.228 595.824,160.279C594.716,160.331 593.611,160.382 592.525,160.382C589.649,160.382 586.909,160.021 584.612,158.346C580.619,155.433 579.891,149.834 577.21,145.681C573.476,139.896 565.815,136.725 564.086,130.061C563.83,129.077 563.726,128.087 563.725,127.093C563.724,123.286 565.256,119.416 565.732,115.55C565.851,114.589 565.904,113.629 565.904,112.671C565.907,106.997 564.084,101.36 563.276,95.686C563.072,94.248 562.956,92.756 562.957,91.262C562.959,85.864 564.475,80.435 568.763,77.41C572.124,75.039 576.472,74.673 580.267,73.085C586.225,70.59 590.444,65.28 595.464,61.213C598.969,58.374 603.544,56.113 607.887,56.113C609.758,56.113 611.587,56.533 613.268,57.506C616.115,53.633 620.918,51.343 625.707,51.343C626.912,51.343 628.117,51.488 629.289,51.79C635.66,53.428 640.364,58.983 646.597,61.086C650.939,62.551 655.961,62.325 659.668,65.02C663.165,67.561 664.553,72.01 666.439,75.9C671.277,85.878 680.569,93.814 682.634,104.71C682.942,106.337 683.076,107.973 683.076,109.613C683.079,114.855 681.725,120.132 680.378,125.25C679.167,129.852 677.897,134.577 675.065,138.4C672.138,142.349 667.807,144.978 664.233,148.352C660.063,152.29 656.934,157.237 652.693,161.098C646.852,166.415 638.944,169.292 631.061,169.292ZM622.451,62.551C608.373,62.551 594.433,68.79 585.074,80.729C568.906,101.354 572.519,131.18 593.144,147.349C601.83,154.158 612.144,157.458 622.387,157.458C636.465,157.458 650.405,151.219 659.764,139.28C675.933,118.655 672.319,88.828 651.694,72.66C643.008,65.851 632.694,62.551 622.451,62.551Z" style="fill:rgb(25,158,137);fill-rule:nonzero;"/>
        <path d="M659.764,139.28C643.596,159.905 613.769,163.517 593.144,147.349C572.519,131.18 568.906,101.354 585.074,80.729C601.242,60.104 631.069,56.492 651.694,72.66C672.319,88.828 675.933,118.655 659.764,139.28Z" style="fill:rgb(43,223,194);fill-rule:nonzero;"/>
        <path d="M602.331,120.82C600.66,120.82 598.978,120.282 597.562,119.171C594.197,116.534 593.608,111.67 596.245,108.306C597.771,106.359 600.045,105.341 602.341,105.341C604.012,105.341 605.694,105.879 607.11,106.99C610.475,109.627 611.064,114.492 608.427,117.855C606.901,119.802 604.627,120.82 602.331,120.82Z" style="fill:rgb(25,158,137);fill-rule:nonzero;"/>
        <path d="M610.021,95.232C609.049,95.232 608.07,94.919 607.246,94.273C605.289,92.739 604.947,89.909 606.48,87.952C607.369,86.819 608.691,86.228 610.027,86.228C610.999,86.228 611.978,86.541 612.802,87.187C614.758,88.72 615.101,91.55 613.567,93.507C612.679,94.64 611.357,95.232 610.021,95.232Z" style="fill:rgb(25,158,137);fill-rule:nonzero;"/>
        <path d="M238.336,433.54C226.532,434.84 215.91,426.324 214.611,414.52C213.312,402.716 221.828,392.094 233.632,390.795C245.436,389.496 256.058,398.012 257.357,409.816C258.656,421.619 250.14,432.241 238.336,433.54Z" style="fill:rgb(20,171,146);fill-rule:nonzero;"/>
        <path d="M226.502,406.34C224.737,406.34 223.218,405.011 223.021,403.216C222.809,401.29 224.198,399.558 226.123,399.347C226.253,399.333 226.383,399.326 226.511,399.326C228.276,399.326 229.795,400.654 229.992,402.449C230.204,404.374 228.815,406.107 226.89,406.319C226.76,406.333 226.63,406.34 226.502,406.34Z" style="fill:rgb(43,223,194);fill-rule:nonzero;"/>
        <path d="M233.847,398.291C232.82,398.291 231.937,397.518 231.821,396.474C231.698,395.355 232.506,394.347 233.626,394.223C233.702,394.215 233.777,394.211 233.851,394.211C234.878,394.211 235.762,394.983 235.877,396.028C236,397.148 235.192,398.156 234.072,398.279C233.997,398.287 233.921,398.291 233.847,398.291Z" style="fill:rgb(43,223,194);fill-rule:nonzero;"/>
        <path d="M241.391,400.829C241.013,400.829 240.687,400.544 240.645,400.16C240.6,399.746 240.897,399.374 241.311,399.329C241.339,399.326 241.367,399.325 241.394,399.325C241.772,399.325 242.098,399.61 242.14,399.994C242.186,400.407 241.888,400.78 241.475,400.825C241.446,400.828 241.418,400.829 241.391,400.829Z" style="fill:rgb(43,223,194);fill-rule:nonzero;"/>
        <path d="M110.04,191.644C110.04,214.658 91.383,233.314 68.37,233.314C45.357,233.314 26.7,214.658 26.7,191.644C26.7,168.631 45.357,149.975 68.37,149.975C91.383,149.975 110.04,168.631 110.04,191.644Z" style="fill:rgb(43,223,194);fill-rule:nonzero;"/>
        <path d="M47.384,213.036C43.631,213.036 40.588,209.993 40.588,206.24C40.588,202.486 43.631,199.443 47.384,199.443C51.138,199.443 54.18,202.486 54.18,206.24C54.18,209.993 51.138,213.036 47.384,213.036Z" style="fill:rgb(25,158,137);fill-rule:nonzero;"/>
        <path d="M40.588,190.581C38.405,190.581 36.635,188.811 36.635,186.627C36.635,184.444 38.405,182.674 40.588,182.674C42.772,182.674 44.542,184.444 44.542,186.627C44.542,188.811 42.772,190.581 40.588,190.581Z" style="fill:rgb(25,158,137);fill-rule:nonzero;"/>
        <path d="M27.945,201.778C28.132,202.501 -7.718,236.899 1.522,244.227C10.763,251.556 49.637,232.756 82.776,205.99C115.916,179.224 146.187,146.723 137.902,138.119C129.617,129.516 88.203,154.989 88.203,154.989L93.152,158.145C93.152,158.145 118.192,142.079 126.112,148.316C134.032,154.552 111.455,178.906 79.59,202.166C47.725,225.427 16.937,241.756 12.157,235.383C7.378,229.011 29.93,207.754 29.93,207.754L27.945,201.778Z" style="fill:rgb(25,158,137);fill-rule:nonzero;"/>
        <path d="M7.45,245.823C4.903,245.823 2.888,245.31 1.522,244.227C0.466,243.39 0,242.199 0,240.745C0.003,229.509 27.956,202.567 27.946,201.783C27.946,201.781 27.946,201.779 27.945,201.778L29.93,207.754L29.929,207.755C29.754,207.92 11.488,225.175 11.492,233.176C11.493,234.027 11.7,234.773 12.157,235.383C12.865,236.326 14.14,236.772 15.907,236.772C26.073,236.772 52.442,221.984 79.59,202.166C107.114,182.074 127.708,161.167 127.704,151.824C127.704,150.351 127.191,149.165 126.112,148.316C124.824,147.302 123.086,146.878 121.074,146.878C110.713,146.878 93.152,158.145 93.152,158.145L88.203,154.989C88.203,154.989 118.515,136.344 132.461,136.344C134.816,136.344 136.705,136.876 137.902,138.119C138.84,139.094 139.284,140.375 139.285,141.92C139.289,150.201 126.568,166.057 109.111,182.851C101.076,190.581 92.038,198.509 82.776,205.99C71.991,214.701 60.598,222.569 49.817,228.966C32.369,239.32 16.525,245.823 7.45,245.823Z" style="fill:rgb(9,90,77);fill-rule:nonzero;"/>
        <path d="M450.354,149.634C450.542,141.706 457.121,135.431 465.05,135.619C472.978,135.807 479.252,142.387 479.065,150.315C478.876,158.243 472.297,164.518 464.368,164.33C456.44,164.142 450.165,157.562 450.354,149.634Z" style="fill:rgb(51,88,99);fill-rule:nonzero;"/>
        <path d="M469.388,144.475C469.419,143.182 470.492,142.159 471.785,142.189C473.078,142.22 474.102,143.293 474.07,144.586C474.04,145.879 472.967,146.903 471.674,146.872C470.381,146.841 469.357,145.768 469.388,144.475Z" style="fill:rgb(12,43,52);fill-rule:nonzero;"/>
        <path d="M474.071,149.942C474.09,149.19 474.714,148.595 475.466,148.613C476.218,148.631 476.814,149.255 476.796,150.007C476.777,150.759 476.153,151.355 475.401,151.337C474.649,151.319 474.054,150.695 474.071,149.942Z" style="fill:rgb(12,43,52);fill-rule:nonzero;"/>
        <path d="M472.243,154.126C472.522,154.133 472.74,154.363 472.734,154.64C472.728,154.917 472.497,155.137 472.22,155.13C471.942,155.124 471.723,154.893 471.73,154.616C471.736,154.339 471.966,154.119 472.243,154.126Z" style="fill:rgb(12,43,52);fill-rule:nonzero;"/>
    </g>
</svg>
