<?xml version="1.0" encoding="UTF-8" standalone="no"?>
<!DOCTYPE svg PUBLIC "-//W3C//DTD SVG 1.1//EN" "http://www.w3.org/Graphics/SVG/1.1/DTD/svg11.dtd">
<svg width="100%" height="100%" viewBox="0 0 1024 768" version="1.1" xmlns="http://www.w3.org/2000/svg" xmlns:xlink="http://www.w3.org/1999/xlink" xml:space="preserve" xmlns:serif="http://www.serif.com/" style="fill-rule:evenodd;clip-rule:evenodd;stroke-linejoin:round;stroke-miterlimit:2;">
    <g id="logo-group" transform="matrix(4.30698,0,0,4.30698,-1687.89,-1264.6)">
        <g id="logo-center">
            <g id="title">
                <g transform="matrix(3,0,0,3,174.624,82.7737)">
                    <g id="path232462">
                        <path d="M100,112.396L106.198,124.791L124.791,124.791L100,75.209L75.209,124.791L93.802,124.791L100,112.396Z" style="fill:rgb(16,16,16);fill-rule:nonzero;"/>
                    </g>
                </g>
                <g id="path232464" transform="matrix(3,0,0,3,-1068.64,459.6)">
                    <g transform="matrix(1,0,0,1,438.521,-125.609)">
                        <path d="M106.198,87.604L75.209,87.604L75.209,124.791L106.198,124.791C116.467,124.791 124.791,116.467 124.791,106.198C124.791,95.929 116.467,87.604 106.198,87.604Z" style="fill:rgb(16,16,16);fill-rule:nonzero;"/>
                    </g>
                    <g transform="matrix(1,0,0,1,438.521,-125.609)">
                        <path d="M87.604,75.209C80.759,75.209 75.209,80.758 75.209,87.604C75.209,94.45 80.759,100 87.604,100L124.791,100L124.791,75.209L87.604,75.209Z" style="fill:rgb(36,222,192);fill-rule:nonzero;"/>
                    </g>
                    <g transform="matrix(1,0,0,1,438.521,-125.609)">
                        <path d="M106.198,87.604L75.209,87.604C75.209,94.45 80.759,100 87.605,100L123.71,100C121.155,92.783 114.29,87.604 106.198,87.604Z" style="fill:rgb(40,190,161);fill-rule:nonzero;"/>
                    </g>
                </g>
            </g>
        </g>
    </g>
</svg>
