<?xml version="1.0" standalone="no"?>
<!DOCTYPE svg PUBLIC "-//W3C//DTD SVG 20010904//EN"
 "http://www.w3.org/TR/2001/REC-SVG-20010904/DTD/svg10.dtd">
<svg version="1.0" xmlns="http://www.w3.org/2000/svg"
 width="100.000000pt" height="100.000000pt" viewBox="0 0 100.000000 100.000000"
 preserveAspectRatio="xMidYMid meet">
<metadata>
Created by potrace 1.11, written by Peter Selinger 2001-2013
</metadata>
<g transform="translate(0.000000,100.000000) scale(0.100000,-0.100000)"
fill="#000000" stroke="none">
<path d="M483 809 c-28 -4 -65 -16 -81 -27 l-29 -21 -13 27 c-12 26 -18 15
-166 -281 -85 -169 -153 -311 -150 -315 4 -7 226 -7 229 0 1 1 17 32 34 68
l32 65 0 -66 c1 -44 5 -68 14 -71 6 -2 105 -4 218 -2 227 2 262 9 323 70 53
54 85 157 64 212 -4 13 -5 29 -1 35 4 7 8 78 8 160 1 126 -1 147 -15 148 -78
4 -426 3 -467 -2z"/>
</g>
</svg>
